<?xml version="1.0" encoding="utf-8"?>
<!-- Generator: Adobe Illustrator 24.1.2, SVG Export Plug-In . SVG Version: 6.00 Build 0)  -->
<svg version="1.1" id="Слой_1" xmlns="http://www.w3.org/2000/svg" xmlns:xlink="http://www.w3.org/1999/xlink" x="0px" y="0px"
	 viewBox="0 0 128 128" style="enable-background:new 0 0 128 128;" xml:space="preserve">
<style type="text/css">
	.st0{fill: #3250ff;}
	.st1{fill:#FCC02B;}
</style>
<path class="st0" d="M20.84,47.54l5.45-5.45l37.63,37.63l18.03-18.03l4.57,4.57L63.03,89.74L20.84,47.54z"/>
<path class="st0" d="M84.86,36.09c11.24,11.73,24.1-0.15,27.73-9.83l4.89,3.01c-13.93,37.58-62.24,9.57-40.51-18.97
	c11.29-10.79,23.3-2.96,29.18,4.51L84.86,36.09z M97.07,16c-11.2-12.6-27.05,3.9-16.09,16.09L97.07,16z"/>
<path class="st1" d="M99.67,65.68l-5.45,5.45L56.59,33.5L38.56,51.53l-4.57-4.57l23.48-23.48L99.67,65.68z"/>
<path class="st1" d="M44.45,85.94c-7.58-7.33-15.4-5.64-20.91-0.12c-3.94,3.94-5.64,7.01-6.82,9.95l-4.89-3.01
	c1.07-2.82,3.38-7.14,8.2-11.96c9.33-9.33,21.04-8.77,30.18,0.38c9.14,9.14,10.95,21.72,2.13,30.55c-9.89,9.89-21.22,3.82-26.8-1.75
	c-1.13-1.13-1.88-2.13-2.38-2.76L44.45,85.94z M32.25,106.04c3.44,3.57,10.39,7.51,16.59,1.31c5.57-5.57,2.88-13.15-0.5-17.4
	L32.25,106.04z"/>
</svg>
